<svg viewBox="0 0 467 283" fill="none" xmlns="http://www.w3.org/2000/svg">
<rect x="3.41244" y="150.191" width="137.773" height="26.966" rx="13.483" transform="rotate(-23.7958 3.41244 150.191)" fill="url(#paint0_linear_17_2)"/>
<rect x="10.2355" y="142.057" width="142.891" height="26.9661" rx="13.483" transform="rotate(22.3069 10.2355 142.057)" fill="#B1ADD0"/>
<rect x="462.61" y="165.421" width="137.773" height="26.9661" rx="13.483" transform="rotate(156.235 462.61 165.421)" fill="url(#paint1_linear_17_2)"/>
<rect x="455.783" y="173.551" width="142.891" height="26.9661" rx="13.483" transform="rotate(-157.662 455.783 173.551)" fill="#C2C7B1"/>
<path d="M271.147 74.6364H299.473V176.792C299.473 187.99 296.826 197.839 291.533 206.339C286.29 214.839 278.909 221.482 269.391 226.266C259.873 231 248.751 233.367 236.026 233.367C223.251 233.367 212.104 231 202.585 226.266C193.067 221.482 185.687 214.839 180.444 206.339C175.201 197.839 172.58 187.99 172.58 176.792V74.6364H200.906V174.425C200.906 180.94 202.331 186.743 205.181 191.833C208.083 196.923 212.155 200.918 217.397 203.82C222.64 206.67 228.85 208.095 236.026 208.095C243.203 208.095 249.413 206.67 254.656 203.82C259.949 200.918 264.021 196.923 266.872 191.833C269.722 186.743 271.147 180.94 271.147 174.425V74.6364Z" fill="#AF8F8F"/>
<rect x="172.617" y="256.048" width="128.024" height="20.2143" rx="10.1071" fill="#88B478"/>
<defs>
<linearGradient id="paint0_linear_17_2" x1="3.41244" y1="163.674" x2="141.186" y2="163.674" gradientUnits="userSpaceOnUse">
<stop stop-color="#7D0202"/>
<stop offset="1" stop-color="#A80000"/>
</linearGradient>
<linearGradient id="paint1_linear_17_2" x1="600.384" y1="178.904" x2="462.61" y2="178.904" gradientUnits="userSpaceOnUse">
<stop stop-color="#5FB200"/>
<stop offset="1" stop-color="#3C6D03"/>
</linearGradient>
</defs>
</svg>
